<?xml version="1.0" encoding="utf-8"?>
    <!-- Generator: Grasshopper 1.0.0, Redback Plugin. SVG Version: 6.00 Build 0) Made by Andrew Butler at Cox Architecture -->
    <!DOCTYPE svg PUBLIC "-//W3C//DTD SVG 1.1//EN" "http://www.w3.org/Graphics/SVG/1.1/DTD/svg11.dtd">
    <svg version="1.1" xmlns="http://www.w3.org/2000/svg" xmlns:xlink="http://www.w3.org/1999/xlink" x="0px" y="0px"
    width="297mm" height="210mm" viewBox="0 0 297 210" xml:space="preserve">
    <style type="text/css">
    *{
fill: #e78787;
stroke: #6d2323;
stroke-width: 0.2mm;
stroke-linecap: round;
stroke-linejoin: round;
}
[layer="Default"]{
stroke: #2d1414;
stroke-width:0.1mm;
}
[layer="Layer 01"]{
stroke-dasharray: 0.5mm 0.5mm;
fill: none;
}
[layer="Layer 02"]{
stroke: #2d1414;
fill: #2d1414;
}
    </style>
    <path spline_1deg="" d=" M24.20,94.12 L24.48,94.57 L24.75,95.03 L25.03,95.48 L25.31,95.93 L25.59,96.38 L25.87,96.82 L26.15,97.25 L26.43,97.69 L26.71,98.12 L26.99,98.55 L27.28,98.97 L27.56,99.39 L27.85,99.81 L28.13,100.22 L28.42,100.63 L28.71,101.03 L29.00,101.44 L29.28,101.83 L29.58,102.23 L29.87,102.62 L30.16,103.01 L30.45,103.39 L30.74,103.77 L31.04,104.15 L31.33,104.52 L31.63,104.89 L31.93,105.26 L32.23,105.62 L32.52,105.98 L32.82,106.34 L33.13,106.69 L33.43,107.04 L33.73,107.39 L34.03,107.73 L34.34,108.06 L34.64,108.40 L34.95,108.73 L35.25,109.06 L35.56,109.38 L35.87,109.70 L36.18,110.02 L36.49,110.33 L36.80,110.64 L37.11,110.95 L37.42,111.25 L37.73,111.55 L38.05,111.84 L38.36,112.14 L38.68,112.42 L38.99,112.71 L39.31,112.99 L39.63,113.27 L39.95,113.54 L40.27,113.81 L40.59,114.08 L40.91,114.34 L41.23,114.60 L41.56,114.86 L41.88,115.11 L42.21,115.36 L42.53,115.60 L42.86,115.85 L43.19,116.09 L43.51,116.32 L43.84,116.55 L44.17,116.78 L44.50,117.00 L44.84,117.22 L45.17,117.44 L45.50,117.65 L45.84,117.86 L46.17,118.07 L46.51,118.27 L46.84,118.47 L47.18,118.67 L47.52,118.86 L47.86,119.05 L48.20,119.23 L48.54,119.42 L48.88,119.59 L49.23,119.77 L49.57,119.94 L49.91,120.11 L50.26,120.27 L50.61,120.43 L50.95,120.59 L51.30,120.74 L51.65,120.89 L52.00,121.03 L52.35,121.18 L52.70,121.32 L53.05,121.45 L53.40,121.58 L53.76,121.71 L54.11,121.84 L54.47,121.96 L54.82,122.07 L55.18,122.19 L55.54,122.30 L55.90,122.40 L56.26,122.51 L56.62,122.61 L56.98,122.70 L57.34,122.80 L57.70,122.88 L58.07,122.97 L58.43,123.05 L58.80,123.13 L59.16,123.21 L59.53,123.28 L59.90,123.34 L60.27,123.41 L60.64,123.47 L61.01,123.53 L61.38,123.58 L61.75,123.63 L62.13,123.67 L62.50,123.72 L62.88,123.76 L63.25,123.79 L63.63,123.82 L64.00,123.85 L64.38,123.88 L64.76,123.90 L65.14,123.92 L65.52,123.93 L65.90,123.94 L66.29,123.95 L66.67,123.95 L67.05,123.95 L67.44,123.95 L67.82,123.94 L68.21,123.93 L68.60,123.92 L68.99,123.90 L69.38,123.88 L69.77,123.85 L70.16,123.82 L70.55,123.79 L70.94,123.76 L71.33,123.72 L71.73,123.67 L72.12,123.63 L72.52,123.58 L72.92,123.52 L73.31,123.47 L73.71,123.41 L74.11,123.34 L74.51,123.28 L74.91,123.20 L75.31,123.13 L75.72,123.05 L76.12,122.97 L76.53,122.88 L76.93,122.79 L77.34,122.70 L77.74,122.61 L78.15,122.51 L78.56,122.40 L78.97,122.30 L79.38,122.19 L79.79,122.07 L80.20,121.95 L80.62,121.83 L81.03,121.71 L81.44,121.58 L81.86,121.45 L82.28,121.31 L82.69,121.18 L83.11,121.03 L83.53,120.89 L83.95,120.74 L84.37,120.58 L84.79,120.43 L85.21,120.27 L85.64,120.10 L86.06,119.94 L86.48,119.77 L86.91,119.59 L87.34,119.41 L87.76,119.23 L88.19,119.05 L88.62,118.86 L89.05,118.67 L89.48,118.47 L89.91,118.27 L90.34,118.07 L90.78,117.86 L91.21,117.65 L91.65,117.44 L92.08,117.22 L92.52,117.00 L92.95,116.78 L93.39,116.55 L93.83,116.32 L94.27,116.08 L94.71,115.84 L95.15,115.60 L95.60,115.36 L96.04,115.11 L96.48,114.85 L96.93,114.60 L97.37,114.34 L97.82,114.08 L98.27,113.81 L98.72,113.54 L99.17,113.26 L99.62,112.99 L100.07,112.71 L100.52,112.42 L100.97,112.13 L101.42,111.84 L101.88,111.54 L102.33,111.25 L102.79,110.94 L103.25,110.64 L103.70,110.33 L104.16,110.01 L104.62,109.70 L105.08,109.38 L105.54,109.05 L106.00,108.73 L106.47,108.40 L106.93,108.06 L107.39,107.72 L107.86,107.38 L108.33,107.04 L108.79,106.69 L109.26,106.33 L109.73,105.98 L110.20,105.62 L110.67,105.26 L111.14,104.89 L111.61,104.52 L112.08,104.15 L112.56,103.77 L113.03,103.39 L113.51,103.00 L113.98,102.62 L114.46,102.22 L114.94,101.83 L115.42,101.43 L115.90,101.03 L116.38,100.62 L116.86,100.21 L117.34,99.80 L117.82,99.38 L118.31,98.96 L118.79,98.54 L119.28,98.11 L119.76,97.68 L120.25,97.25 L120.74,96.81 L121.23,96.37 L121.72,95.93 L122.21,95.48" layer="Layer 01"/>
<path spline_1deg="" d=" M-195.06,-90.43 L-195.06,287.82 L372.57,287.82 L372.57,-90.43Z" layer="Layer 01"/>
    </svg>