<?xml version="1.0" encoding="utf-8"?>
    <!-- Generator: Grasshopper 1.0.0, Redback Plugin. SVG Version: 6.00 Build 0) Made by Andrew Butler at Cox Architecture -->
    <!DOCTYPE svg PUBLIC "-//W3C//DTD SVG 1.1//EN" "http://www.w3.org/Graphics/SVG/1.1/DTD/svg11.dtd">
    <svg version="1.1" xmlns="http://www.w3.org/2000/svg" xmlns:xlink="http://www.w3.org/1999/xlink" x="0px" y="0px"
    width="297mm" height="210mm" viewBox="0 0 297 210" xml:space="preserve">
    <style type="text/css">
    *{
fill: #e78787;
stroke: #6d2323;
stroke-width: 0.2mm;
stroke-linecap: round;
stroke-linejoin: round;
}
[layer="Default"]{
stroke: #2d1414;
stroke-width:0.1mm;
}
[layer="Layer 01"]{
stroke-dasharray: 0.5mm 0.5mm;
fill: none;
}
[layer="Layer 02"]{
stroke: #2d1414;
fill: #2d1414;
}
    </style>
    <path spline_1deg="" d=" M76.29,122.44 L76.54,122.99 L76.79,123.54 L77.04,124.08 L77.30,124.60 L77.56,125.11 L77.82,125.62 L78.08,126.11 L78.34,126.60 L78.61,127.07 L78.87,127.53 L79.14,127.99 L79.41,128.43 L79.68,128.86 L79.95,129.28 L80.23,129.70 L80.50,130.10 L80.78,130.49 L81.05,130.87 L81.33,131.25 L81.61,131.61 L81.89,131.96 L82.17,132.30 L82.45,132.64 L82.73,132.96 L83.01,133.27 L83.29,133.57 L83.57,133.87 L83.85,134.15 L84.14,134.42 L84.42,134.68 L84.70,134.94 L84.98,135.18 L85.26,135.41 L85.54,135.64 L85.82,135.85 L86.10,136.06 L86.38,136.25 L86.65,136.43 L86.93,136.61 L87.21,136.77 L87.48,136.93 L87.75,137.08 L87.89,137.15 L88.02,137.21 L88.16,137.28 L88.30,137.34 L88.43,137.40 L88.56,137.46 L88.70,137.51 L88.83,137.56 L88.96,137.61 L89.10,137.66 L89.23,137.71 L89.36,137.75 L89.49,137.79 L89.62,137.83 L89.75,137.86 L89.88,137.90 L90.01,137.93 L90.14,137.96 L90.27,137.98 L90.40,138.01 L90.53,138.03 L90.65,138.05 L90.78,138.06 L90.91,138.08 L91.03,138.09 L91.16,138.10 L91.28,138.11 L91.40,138.11 L91.53,138.11 L91.65,138.11 L91.77,138.11 L91.89,138.11 L92.01,138.10 L92.13,138.09 L92.25,138.08 L92.37,138.06 L92.48,138.05 L92.60,138.03 L92.72,138.01 L92.83,137.99 L92.95,137.96 L93.06,137.93 L93.17,137.90 L93.28,137.87 L93.39,137.83 L93.51,137.80 L93.61,137.76 L93.72,137.72 L93.83,137.67 L93.94,137.62 L94.04,137.58 L94.15,137.52 L94.25,137.47 L94.36,137.42 L94.46,137.36 L94.56,137.30 L94.66,137.23 L94.76,137.17 L94.86,137.10 L94.96,137.03 L95.06,136.96 L95.15,136.89 L95.25,136.81 L95.34,136.73 L95.43,136.65 L95.52,136.57 L95.61,136.48 L95.70,136.39 L95.79,136.30 L95.88,136.21 L95.97,136.12 L96.05,136.02 L96.14,135.92 L96.22,135.82 L96.30,135.72 L96.38,135.61 L96.46,135.50 L96.54,135.39 L96.62,135.28 L96.69,135.16 L96.77,135.05 L96.84,134.93 L96.91,134.80 L96.98,134.68 L97.05,134.55 L97.12,134.43 L97.19,134.30 L97.26,134.16 L97.32,134.03 L97.38,133.89 L97.45,133.75 L97.51,133.61 L97.57,133.46 L97.63,133.32 L97.68,133.17 L97.74,133.02 L97.79,132.87 L97.84,132.71 L97.90,132.55 L97.95,132.39 L97.99,132.23 L98.04,132.07 L98.13,131.73 L98.21,131.39 L98.29,131.04 L98.36,130.68 L98.43,130.31 L98.49,129.93 L98.54,129.54 L98.59,129.14 L98.63,128.74 L98.66,128.32 L98.69,127.90 L98.71,127.47 L98.72,127.03 L98.73,126.58 L98.73,126.13 L98.72,125.66 L98.70,125.19 L98.68,124.71 L98.65,124.22 L98.61,123.72 L98.57,123.21 L98.51,122.69 L98.45,122.17 L98.39,121.63 L98.31,121.09 L98.23,120.54 L98.13,119.98 L98.03,119.42 L97.92,118.84 L97.81,118.26 L97.68,117.66 L97.55,117.06 L97.40,116.45 L97.25,115.84 L97.09,115.21" layer="Default"/>
    </svg>