<?xml version="1.0" encoding="utf-8"?>
    <!-- Generator: Grasshopper 1.0.0, Redback Plugin. SVG Version: 6.00 Build 0) Made by Andrew Butler at Cox Architecture -->
    <!DOCTYPE svg PUBLIC "-//W3C//DTD SVG 1.1//EN" "http://www.w3.org/Graphics/SVG/1.1/DTD/svg11.dtd">
    <svg version="1.1" xmlns="http://www.w3.org/2000/svg" xmlns:xlink="http://www.w3.org/1999/xlink" x="0px" y="0px"
    width="297mm" height="210mm" viewBox="0 0 297 210" xml:space="preserve">
    <style type="text/css">
    *{
fill: #e78787;
stroke: #6d2323;
stroke-width: 0.2mm;
stroke-linecap: round;
stroke-linejoin: round;
}
[layer="Default"]{
stroke: #2d1414;
stroke-width:0.1mm;
}
[layer="Layer 01"]{
stroke-dasharray: 0.5mm 0.5mm;
fill: none;
}
[layer="Layer 02"]{
stroke: #2d1414;
fill: #2d1414;
}
    </style>
    <path spline_1deg="" d=" M68.22,68.77 L68.13,68.49 L68.04,68.22 L67.94,67.95 L67.83,67.68 L67.72,67.42 L67.60,67.16 L67.47,66.91 L67.33,66.65 L67.19,66.40 L67.04,66.16 L66.89,65.92 L66.72,65.68 L66.55,65.45 L66.38,65.22 L66.20,65.00 L66.01,64.79 L65.82,64.57 L65.62,64.37 L65.41,64.17 L65.20,63.97 L64.98,63.78 L64.76,63.60 L64.54,63.43 L64.31,63.25 L64.07,63.09 L63.83,62.93 L63.59,62.78 L63.34,62.64 L63.09,62.50 L62.83,62.37 L62.57,62.25 L62.31,62.14 L62.04,62.03 L61.78,61.93 L61.50,61.83 L61.23,61.75 L60.96,61.67 L60.68,61.60 L60.40,61.54 L60.12,61.48 L59.83,61.43 L59.55,61.40 L59.26,61.36 L58.98,61.34 L58.69,61.32 L58.41,61.32 L58.12,61.32 L57.83,61.33 L57.55,61.34 L57.26,61.37 L56.98,61.40 L56.69,61.44 L56.41,61.49 L56.13,61.54 L55.85,61.60 L55.57,61.67 L55.29,61.75 L55.02,61.84 L54.75,61.93 L54.48,62.03 L54.22,62.14 L53.95,62.26 L53.70,62.38 L53.44,62.51 L53.19,62.65 L52.94,62.79 L52.70,62.95 L52.46,63.10 L52.22,63.27 L51.99,63.44 L51.77,63.61 L51.55,63.80 L51.33,63.99 L51.12,64.18 L50.92,64.38 L50.72,64.59 L50.52,64.80 L50.34,65.02 L50.15,65.24 L49.98,65.47 L49.81,65.70 L49.65,65.94 L49.49,66.18 L49.34,66.42 L49.20,66.67 L49.07,66.92 L48.94,67.18 L48.82,67.44 L48.70,67.70 L48.60,67.97 L48.50,68.24 L48.41,68.51 L48.32,68.79 L48.25,69.06 L48.18,69.34 L48.12,69.62 L48.07,69.90 L48.02,70.19 L47.98,70.47 L47.95,70.76 L47.93,71.04 L47.92,71.33 L47.91,71.61 L47.92,71.90 L47.93,72.19 L47.94,72.47 L47.97,72.76 L48.00,73.04 L48.05,73.33 L48.10,73.61 L48.15,73.89 L48.22,74.17 L48.29,74.45 L48.37,74.72 L48.46,75.00 L48.56,75.27 L48.66,75.53 L48.77,75.80 L48.89,76.06 L49.01,76.32 L49.14,76.57 L49.28,76.82 L49.43,77.07 L49.58,77.31 L49.74,77.55 L49.91,77.78 L50.08,78.01 L50.26,78.24 L50.44,78.46 L50.63,78.67 L50.83,78.88 L51.03,79.08 L51.24,79.28 L51.45,79.47 L51.67,79.66 L51.89,79.84 L52.12,80.01 L52.36,80.18 L52.59,80.34 L52.84,80.49 L53.08,80.64 L53.33,80.78 L53.59,80.91 L53.84,81.04 L54.10,81.16 L54.37,81.27 L54.64,81.37 L54.90,81.47 L55.18,81.56 L55.45,81.64 L55.73,81.72 L56.01,81.78 L56.29,81.84 L56.57,81.89 L56.85,81.94 L57.14,81.97 L57.42,82.00 L57.71,82.02 L58.00,82.03 L58.28,82.03 L58.57,82.03 L58.86,82.02 L59.14,82.00 L59.43,81.97 L59.71,81.93 L60.00,81.89 L60.28,81.84 L60.56,81.78 L60.84,81.71 L61.11,81.64 L61.39,81.56 L61.66,81.47 L61.93,81.37 L62.20,81.26 L62.46,81.15 L62.72,81.03 L62.98,80.90 L63.23,80.77 L63.48,80.63 L63.73,80.48 L63.97,80.33 L64.21,80.17 L64.44,80.00 L64.67,79.83 L64.89,79.65 L65.11,79.46 L65.32,79.27 L65.53,79.07 L65.73,78.87 L65.93,78.66 L66.12,78.44 L66.30,78.22 L66.48,78.00 L66.65,77.77 L66.82,77.53 L66.98,77.29 L67.13,77.05 L67.27,76.80 L67.41,76.55 L67.54,76.30 L67.67,76.04 L67.78,75.78 L67.89,75.51 L68.00,75.25 L68.09,74.98 L68.18,74.70 L68.26,74.43 L68.33,74.15 L68.40,73.87 L68.45,73.59 L68.50,73.31 L68.54,73.02 L68.58,72.74 L68.60,72.45 L68.62,72.17 L68.63,71.88 L68.63,71.59 L68.63,71.31 L68.61,71.02 L68.59,70.73 L68.56,70.45 L68.52,70.16 L68.48,69.88 L68.42,69.60 L68.36,69.32 L68.29,69.04Z" layer="Layer 02"/>
<path spline_1deg="" d=" M105.50,70.88 L105.51,70.64 L105.51,70.41 L105.51,70.17 L105.50,69.93 L105.48,69.70 L105.45,69.46 L105.42,69.23 L105.37,69.00 L105.32,68.76 L105.26,68.53 L105.20,68.31 L105.12,68.08 L105.04,67.86 L104.95,67.64 L104.86,67.42 L104.75,67.21 L104.64,67.00 L104.53,66.80 L104.40,66.59 L104.27,66.40 L104.13,66.20 L103.99,66.02 L103.84,65.83 L103.68,65.65 L103.52,65.48 L103.35,65.32 L103.18,65.15 L103.00,65.00 L102.82,64.85 L102.63,64.71 L102.43,64.57 L102.24,64.44 L102.03,64.32 L101.83,64.20 L101.62,64.09 L101.40,63.99 L101.19,63.89 L100.97,63.81 L100.74,63.72 L100.52,63.65 L100.29,63.59 L100.06,63.53 L99.83,63.48 L99.60,63.44 L99.36,63.40 L99.13,63.38 L98.89,63.36 L98.65,63.35 L98.42,63.35 L98.18,63.35 L97.94,63.37 L97.71,63.39 L97.47,63.42 L97.24,63.45 L97.01,63.50 L96.78,63.55 L96.55,63.61 L96.32,63.68 L96.10,63.76 L95.87,63.84 L95.66,63.93 L95.44,64.03 L95.23,64.13 L95.02,64.25 L94.81,64.36 L94.61,64.49 L94.42,64.62 L94.23,64.76 L94.04,64.91 L93.86,65.06 L93.68,65.22 L93.51,65.38 L93.34,65.55 L93.18,65.73 L93.03,65.91 L92.88,66.09 L92.74,66.28 L92.61,66.48 L92.48,66.67 L92.36,66.88 L92.24,67.08 L92.13,67.30 L92.03,67.51 L91.94,67.73 L91.85,67.95 L91.78,68.17 L91.70,68.40 L91.64,68.63 L91.59,68.86 L91.54,69.09 L91.50,69.32 L91.47,69.56 L91.44,69.79 L91.43,70.03 L91.42,70.26 L91.42,70.50 L91.42,70.74 L91.44,70.97 L91.46,71.21 L91.49,71.45 L91.53,71.68 L91.58,71.91 L91.64,72.14 L91.70,72.37 L91.77,72.60 L91.85,72.82 L91.93,73.04 L92.02,73.26 L92.12,73.47 L92.23,73.68 L92.34,73.89 L92.47,74.10 L92.59,74.30 L92.73,74.49 L92.87,74.68 L93.02,74.87 L93.17,75.05 L93.33,75.22 L93.49,75.39 L93.66,75.56 L93.84,75.71 L94.02,75.87 L94.21,76.01 L94.40,76.15 L94.59,76.29 L94.79,76.41 L95.00,76.53 L95.21,76.65 L95.42,76.75 L95.63,76.85 L95.85,76.94 L96.07,77.03 L96.30,77.10 L96.52,77.17 L96.75,77.23 L96.98,77.29 L97.22,77.33 L97.45,77.37 L97.69,77.40 L97.92,77.42 L98.16,77.44 L98.39,77.44 L98.63,77.44 L98.87,77.43 L99.10,77.42 L99.34,77.39 L99.57,77.36 L99.81,77.32 L100.04,77.27 L100.27,77.21 L100.50,77.14 L100.72,77.07 L100.94,76.99 L101.17,76.91 L101.38,76.81 L101.60,76.71 L101.81,76.60 L102.01,76.49 L102.22,76.36 L102.41,76.23 L102.61,76.10 L102.80,75.96 L102.98,75.81 L103.16,75.65 L103.34,75.49 L103.50,75.32 L103.67,75.15 L103.82,74.98 L103.97,74.79 L104.12,74.60 L104.26,74.41 L104.39,74.22 L104.51,74.01 L104.63,73.81 L104.74,73.60 L104.85,73.39 L104.94,73.17 L105.03,72.95 L105.12,72.73 L105.19,72.51 L105.26,72.28 L105.32,72.05 L105.37,71.82 L105.41,71.59 L105.45,71.35 L105.48,71.12Z" layer="Layer 02"/>
    </svg>