<?xml version="1.0" encoding="utf-8"?>
    <!-- Generator: Grasshopper 1.0.0, Redback Plugin. SVG Version: 6.00 Build 0) Made by Andrew Butler at Cox Architecture -->
    <!DOCTYPE svg PUBLIC "-//W3C//DTD SVG 1.1//EN" "http://www.w3.org/Graphics/SVG/1.1/DTD/svg11.dtd">
    <svg version="1.1" xmlns="http://www.w3.org/2000/svg" xmlns:xlink="http://www.w3.org/1999/xlink" x="0px" y="0px"
    width="420mm" height="297mm" viewBox="0 0 420 297" xml:space="preserve">
    <style type="text/css">
    *{
fill: #e78787;
stroke: #6d2323;
stroke-width: 0.2mm;
stroke-linecap: round;
stroke-linejoin: round;
}
[layer="Default"]{
stroke: #2d1414;
stroke-width:0.1mm;
}
[layer="Layer 01"]{
stroke-dasharray: 0.5mm 0.5mm;
fill: none;
}
[layer="Layer 02"]{
stroke: #2d1414;
fill: #2d1414;
}
    </style>
    <path spline_1deg="" d=" M2178.16,328.70 L2182.08,328.70 L2182.08,339.23 L2182.08,339.23 L2182.07,339.36 L2182.06,339.48 L2182.04,339.61 L2182.03,339.73 L2182.01,339.86 L2181.98,339.98 L2181.96,340.10 L2181.93,340.23 L2181.90,340.35 L2181.87,340.47 L2181.83,340.59 L2181.80,340.71 L2181.76,340.83 L2181.72,340.95 L2181.67,341.07 L2181.63,341.18 L2181.57,341.31 L2181.52,341.44 L2181.46,341.56 L2181.40,341.69 L2181.33,341.81 L2181.26,341.93 L2181.20,342.05 L2181.12,342.17 L2181.05,342.29 L2180.98,342.41 L2180.90,342.52 L2180.82,342.64 L2180.73,342.75 L2180.65,342.86 L2180.56,342.97 L2180.48,343.07 L2180.34,343.23 L2180.21,343.38 L2180.07,343.52 L2179.92,343.67 L2179.78,343.81 L2179.63,343.94 L2179.47,344.07 L2179.32,344.20 L2179.19,344.30 L2179.07,344.39 L2178.95,344.48 L2178.82,344.57 L2178.69,344.65 L2178.56,344.74 L2178.43,344.82 L2178.30,344.90 L2178.17,344.98 L2178.03,345.05 L2177.89,345.13 L2177.75,345.20 L2177.61,345.27 L2177.47,345.34 L2177.33,345.40 L2177.19,345.46 L2177.04,345.53 L2176.90,345.58 L2176.75,345.64 L2176.61,345.69 L2176.46,345.75 L2176.31,345.79 L2176.16,345.84 L2176.01,345.89 L2175.83,345.94 L2175.65,345.99 L2175.46,346.03 L2175.28,346.07 L2175.09,346.11 L2174.91,346.15 L2174.72,346.18 L2174.53,346.21 L2174.34,346.23 L2174.16,346.25 L2173.97,346.27 L2173.78,346.29 L2173.59,346.30 L2173.40,346.31 L2173.21,346.32 L2173.02,346.32 L2172.83,346.32 L2172.65,346.31 L2172.46,346.31 L2172.28,346.30 L2172.09,346.28 L2171.91,346.27 L2171.72,346.25 L2171.54,346.23 L2171.36,346.20 L2171.17,346.17 L2170.99,346.14 L2170.81,346.11 L2170.63,346.07 L2170.45,346.03 L2170.27,345.98 L2170.09,345.94 L2169.94,345.89 L2169.79,345.85 L2169.64,345.80 L2169.49,345.75 L2169.34,345.70 L2169.19,345.65 L2169.05,345.59 L2168.90,345.53 L2168.76,345.47 L2168.61,345.41 L2168.47,345.35 L2168.33,345.28 L2168.19,345.21 L2168.05,345.14 L2167.91,345.06 L2167.78,344.99 L2167.64,344.91 L2167.51,344.83 L2167.38,344.75 L2167.25,344.66 L2167.12,344.58 L2167.00,344.49 L2166.87,344.40 L2166.75,344.31 L2166.59,344.18 L2166.44,344.06 L2166.29,343.93 L2166.15,343.80 L2166.01,343.66 L2165.87,343.52 L2165.73,343.38 L2165.60,343.24 L2165.51,343.13 L2165.42,343.02 L2165.33,342.91 L2165.24,342.80 L2165.16,342.69 L2165.08,342.58 L2165.00,342.46 L2164.92,342.35 L2164.85,342.23 L2164.78,342.11 L2164.71,341.99 L2164.64,341.87 L2164.58,341.75 L2164.51,341.62 L2164.45,341.50 L2164.40,341.37 L2164.35,341.25 L2164.30,341.14 L2164.26,341.02 L2164.21,340.90 L2164.17,340.78 L2164.13,340.66 L2164.10,340.54 L2164.07,340.42 L2164.03,340.30 L2164.01,340.18 L2163.98,340.05 L2163.96,339.93 L2163.93,339.81 L2163.92,339.68 L2163.90,339.56 L2163.89,339.43 L2163.89,339.42 L2163.89,339.41 L2163.84,328.70 L2164.04,328.70 L2168.15,328.70" layer="Layer 01"/>
<path spline_1deg="" d=" M2178.16,329.40 L2181.38,329.40 L2181.38,339.22 L2181.37,339.33 L2181.36,339.45 L2181.35,339.56 L2181.33,339.67 L2181.31,339.78 L2181.29,339.90 L2181.26,340.01 L2181.24,340.12 L2181.21,340.23 L2181.18,340.34 L2181.15,340.45 L2181.11,340.56 L2181.07,340.66 L2181.03,340.77 L2180.99,340.88 L2180.95,340.98 L2180.90,341.10 L2180.85,341.22 L2180.79,341.34 L2180.73,341.45 L2180.67,341.56 L2180.61,341.68 L2180.54,341.79 L2180.47,341.90 L2180.40,342.01 L2180.33,342.11 L2180.25,342.22 L2180.18,342.32 L2180.10,342.43 L2180.02,342.53 L2179.94,342.63 L2179.85,342.73 L2179.74,342.85 L2179.63,342.97 L2179.51,343.09 L2179.39,343.21 L2179.27,343.32 L2179.15,343.43 L2179.02,343.54 L2178.89,343.64 L2178.76,343.75 L2178.63,343.85 L2178.49,343.94 L2178.36,344.04 L2178.22,344.13 L2178.08,344.22 L2177.93,344.30 L2177.79,344.39 L2177.66,344.46 L2177.53,344.53 L2177.39,344.60 L2177.26,344.66 L2177.12,344.73 L2176.99,344.79 L2176.85,344.85 L2176.71,344.91 L2176.57,344.96 L2176.43,345.01 L2176.29,345.06 L2176.14,345.11 L2176.00,345.16 L2175.86,345.20 L2175.71,345.24 L2175.57,345.28 L2175.41,345.32 L2175.26,345.36 L2175.10,345.39 L2174.94,345.43 L2174.78,345.46 L2174.63,345.48 L2174.47,345.51 L2174.31,345.53 L2174.15,345.55 L2173.99,345.57 L2173.83,345.58 L2173.67,345.59 L2173.51,345.60 L2173.35,345.61 L2173.19,345.62 L2173.03,345.62 L2172.87,345.62 L2172.71,345.62 L2172.55,345.61 L2172.39,345.60 L2172.24,345.59 L2172.08,345.58 L2171.92,345.57 L2171.76,345.55 L2171.61,345.53 L2171.45,345.51 L2171.29,345.48 L2171.14,345.46 L2170.98,345.43 L2170.83,345.40 L2170.67,345.36 L2170.52,345.33 L2170.37,345.29 L2170.23,345.25 L2170.09,345.21 L2169.94,345.17 L2169.80,345.12 L2169.66,345.07 L2169.51,345.02 L2169.37,344.97 L2169.23,344.91 L2169.09,344.86 L2168.96,344.80 L2168.82,344.74 L2168.68,344.67 L2168.55,344.60 L2168.41,344.54 L2168.28,344.47 L2168.14,344.39 L2167.99,344.30 L2167.85,344.22 L2167.71,344.13 L2167.58,344.04 L2167.44,343.95 L2167.31,343.85 L2167.18,343.75 L2167.05,343.65 L2166.92,343.55 L2166.80,343.44 L2166.68,343.33 L2166.56,343.22 L2166.44,343.11 L2166.33,342.99 L2166.21,342.87 L2166.13,342.78 L2166.04,342.68 L2165.96,342.58 L2165.88,342.48 L2165.80,342.37 L2165.72,342.27 L2165.64,342.16 L2165.57,342.05 L2165.50,341.95 L2165.43,341.83 L2165.36,341.72 L2165.30,341.61 L2165.23,341.50 L2165.17,341.38 L2165.12,341.26 L2165.06,341.14 L2165.02,341.04 L2164.97,340.93 L2164.93,340.82 L2164.89,340.71 L2164.85,340.61 L2164.82,340.50 L2164.78,340.38 L2164.75,340.27 L2164.72,340.16 L2164.69,340.05 L2164.67,339.94 L2164.65,339.82 L2164.63,339.71 L2164.61,339.59 L2164.60,339.48 L2164.58,339.36 L2164.54,329.40 L2168.20,329.40" layer="Layer 01"/>
<path spline_1deg="" d=" M2178.16,329.80 L2180.98,329.80 L2180.98,339.22 L2180.97,339.35 L2180.95,339.48 L2180.93,339.61 L2180.91,339.73 L2180.89,339.86 L2180.86,339.99 L2180.83,340.11 L2180.79,340.24 L2180.75,340.37 L2180.71,340.50 L2180.66,340.63 L2180.61,340.76 L2180.56,340.89 L2180.50,341.02 L2180.44,341.14 L2180.37,341.27 L2180.30,341.40 L2180.23,341.53 L2180.15,341.66 L2180.07,341.79 L2179.98,341.91 L2179.89,342.04 L2179.80,342.16 L2179.71,342.28 L2179.59,342.42 L2179.46,342.56 L2179.34,342.70 L2179.20,342.83 L2179.07,342.96 L2178.93,343.09 L2178.79,343.21 L2178.64,343.33 L2178.49,343.45 L2178.33,343.57 L2178.17,343.68 L2178.01,343.79 L2177.85,343.89 L2177.68,343.99 L2177.51,344.08 L2177.34,344.18 L2177.18,344.26 L2177.02,344.34 L2176.86,344.41 L2176.69,344.48 L2176.53,344.55 L2176.36,344.61 L2176.19,344.67 L2176.02,344.73 L2175.84,344.79 L2175.66,344.84 L2175.48,344.89 L2175.30,344.94 L2175.11,344.98 L2174.93,345.02 L2174.75,345.06 L2174.56,345.09 L2174.37,345.12 L2174.18,345.14 L2173.99,345.17 L2173.79,345.18 L2173.60,345.20 L2173.41,345.21 L2173.22,345.22 L2173.02,345.22 L2172.83,345.22 L2172.65,345.21 L2172.46,345.21 L2172.27,345.20 L2172.08,345.18 L2171.89,345.16 L2171.70,345.14 L2171.51,345.11 L2171.33,345.08 L2171.14,345.05 L2170.96,345.02 L2170.78,344.98 L2170.60,344.93 L2170.42,344.89 L2170.24,344.84 L2170.06,344.78 L2169.89,344.73 L2169.72,344.67 L2169.55,344.61 L2169.38,344.54 L2169.22,344.47 L2169.05,344.40 L2168.89,344.33 L2168.73,344.25 L2168.56,344.16 L2168.39,344.07 L2168.22,343.97 L2168.06,343.87 L2167.89,343.77 L2167.73,343.66 L2167.58,343.55 L2167.42,343.44 L2167.28,343.32 L2167.13,343.20 L2166.99,343.08 L2166.86,342.96 L2166.72,342.83 L2166.59,342.69 L2166.47,342.56 L2166.34,342.42 L2166.25,342.30 L2166.15,342.18 L2166.06,342.06 L2165.97,341.93 L2165.88,341.81 L2165.80,341.68 L2165.72,341.55 L2165.65,341.42 L2165.58,341.29 L2165.51,341.17 L2165.45,341.04 L2165.39,340.91 L2165.34,340.78 L2165.29,340.64 L2165.24,340.51 L2165.20,340.37 L2165.16,340.25 L2165.12,340.12 L2165.09,339.99 L2165.06,339.86 L2165.04,339.72 L2165.01,339.59 L2165.00,339.46 L2164.98,339.32 L2164.95,329.80 L2168.20,329.80" layer="Layer 01"/>
<line x1="2164.94636732" y1="329.799355526" x2="2178.64184478" y2="343.332110077" layer="Layer 01"/>
<line x1="2180.98263571" y1="329.799355526" x2="2167.42296505" y2="343.437979538" layer="Layer 01"/>
<line x1="2178.16084766" y1="329.799355526" x2="2178.16084766" y2="329.399355526" layer="Layer 01"/>
<line x1="2168.19562176" y1="329.799355526" x2="2168.19562176" y2="329.399355526" layer="Layer 01"/>
<path spline_1deg="" d=" M2173.15,329.37 L2178.55,329.37 L2178.55,329.01 L2173.15,329.01Z" layer="Layer 01"/>
<path spline_1deg="" d=" M2167.95,329.37 L2173.15,329.37 L2173.15,329.00 L2167.95,329.00Z" layer="Layer 01"/>
<line x1="2168.15223363" y1="328.899355526" x2="2168.15223363" y2="328.699355526" layer="Layer 01"/>
<line x1="2178.16485056" y1="328.899355526" x2="2178.16485056" y2="328.699355526" layer="Layer 01"/>
<path spline_1deg="" d=" M2173.15,328.67 L2178.55,328.67 L2178.55,328.52 L2173.15,328.52Z" layer="Layer 01"/>
<path spline_1deg="" d=" M2167.95,328.67 L2173.15,328.67 L2173.15,328.52 L2167.95,328.52Z" layer="Layer 01"/>
    </svg>